<mxfile host="app.diagrams.net" modified="2021-03-24T01:41:45.959Z" agent="5.0 (Macintosh; Intel Mac OS X 10_15_5) AppleWebKit/537.36 (KHTML, like Gecko) Chrome/89.0.4389.90 Safari/537.36" etag="zTSw-gERZ80vtK4VVFp8" version="13.11.0" type="github">
  <diagram id="2_TChWOzdwiR6xvkDebC" name="第 1 页">
    <mxGraphModel dx="469" dy="313" grid="1" gridSize="10" guides="1" tooltips="1" connect="1" arrows="1" fold="1" page="1" pageScale="1" pageWidth="1100" pageHeight="850" math="0" shadow="0">
      <root>
        <mxCell id="0" />
        <mxCell id="1" parent="0" />
      </root>
    </mxGraphModel>
  </diagram>
</mxfile>
